<svg width="56" height="57" viewBox="0 0 56 57" fill="none" xmlns="http://www.w3.org/2000/svg">
<circle cx="28.0044" cy="28.7988" r="25.0562" fill="white"/>
<path d="M28.7431 22.1682C27.0067 22.3943 27.0148 22.3943 26.1587 22.5477C25.4884 22.6689 24.4951 22.9677 23.849 22.8789C23.3805 22.8143 22.5002 22.5235 22.3953 22.4993C22.3064 22.4751 22.1691 22.5558 22.1126 22.6527C22.0561 22.7497 22.0884 22.9112 22.161 22.9435L24.7131 24.1549L26.4333 24.7687C26.7564 24.8818 27.1117 24.8898 27.3621 24.6314L28.7431 22.8385C29.0015 22.4266 29.1469 22.1036 28.7431 22.1682Z" fill="#3B3839"/>
<path d="M28.9932 8.93967L25.5285 6.20994C25.2539 5.99188 24.9389 5.97573 24.7128 6.20994L20.594 11.7421C20.2871 12.2186 20.3678 12.5497 20.7313 12.7678L25.0924 14.6091C25.48 14.7626 25.7789 14.706 25.9808 14.4557L29.1385 9.80382C29.3404 9.48078 29.397 9.18196 28.9932 8.93967Z" fill="#3B3839"/>
<path d="M30.3903 18.2352L30.2045 20.2462C30.2045 20.7388 30.3822 20.6419 30.5841 20.4642L35.1068 14.6494C35.3733 14.3021 35.4056 13.9872 35.1068 13.7126L31.0929 9.96526C30.7376 9.72297 30.4468 9.81989 30.1965 10.1995L27.0791 14.7463C26.7803 15.1744 26.8852 15.449 27.1921 15.6428L29.6311 16.83C30.1238 17.0157 30.3984 17.6376 30.3903 18.2352Z" fill="#3B3839"/>
<path d="M40.0575 18.421L36.6898 15.1501C36.4394 14.8352 36.0437 14.8756 35.8175 15.2471L28.7994 24.5831C28.5167 24.9788 28.5248 25.2938 28.7994 25.5361L32.4579 27.1513C32.8455 27.3128 33.1928 27.2321 33.5078 26.9332L40.0575 19.487C40.3483 19.1478 40.4856 18.8409 40.0575 18.421Z" fill="#3B3839"/>
<path d="M41.5523 19.907C41.3585 19.7859 41.1646 19.7617 40.9708 19.907L34.2999 27.3613C33.9446 27.8459 34.0011 28.1528 34.2999 28.3708L36.0444 30.1314C36.3755 30.511 36.7066 30.5514 37.0539 30.3414L44.5647 24.1632C44.6535 23.9855 44.6939 23.7997 44.5647 23.5978L41.5523 19.907Z" fill="#3B3839"/>
<path d="M28 0.5C12.5342 0.5 0 13.0342 0 28.5C0 43.9658 12.5342 56.5 28 56.5C43.4658 56.5 56 43.9658 56 28.5C56 13.0342 43.4658 0.5 28 0.5ZM36.8918 51.2182V50.7336V42.2941C36.908 41.4784 37.1987 40.7757 37.6671 40.3073C37.6671 40.3073 38.6524 39.3705 39.775 37.303C40.8976 35.2355 41.0995 33.701 41.3903 32.4654C41.9475 30.091 42.0363 28.0477 42.0363 28.0477C42.0525 27.7328 41.9071 27.6116 41.6245 27.8216L38.7817 29.8972L36.8272 31.3267C36.488 31.5689 36.165 31.4882 35.8581 31.0682C35.8581 31.0682 35.0343 30.1879 34.6547 29.7841C34.2752 29.3803 32.0219 27.7085 30.9639 27.2159C29.906 26.7232 28.7995 26.1821 27.7819 25.9641C26.7643 25.746 25.5206 25.746 25.5206 25.746C25.3914 25.7622 25.3429 25.8349 25.3914 25.9722L33.2253 38.8698C33.4029 39.2251 33.3545 39.4189 32.9426 39.3543L32.0138 39.1605C31.7554 39.1444 31.602 39.322 31.5777 39.5078L30.3905 52.5265C30.3663 52.6477 30.3179 52.7284 30.2694 52.7769C30.0675 52.793 29.8737 52.8092 29.6718 52.8254C29.5991 52.785 29.5587 52.6881 29.5668 52.5023L30.4713 39.5239C30.5036 39.1282 30.3905 38.9586 29.9948 39.0717C29.9948 39.0717 29.6233 39.1282 29.4618 39.1363C29.3003 39.1444 28.9611 39.1524 28.9611 38.9102C28.9611 38.7163 29.3003 38.4983 29.5991 38.2883C29.9544 38.0379 30.4713 37.7068 30.4713 37.7068C30.8105 37.4888 30.7297 36.9557 30.3744 36.4631L24.4384 26.2468L23.0412 24.9869L19.3101 23.4282C19.1162 23.2909 19.0839 23.1455 19.3101 22.9921L21.0222 22.6529C21.2564 22.5802 21.3372 22.2975 21.1595 21.6676L20.4811 19.8908C20.3277 19.5032 20.5538 19.5112 20.8203 19.7697L22.9524 21.5868C23.3239 21.9018 23.76 22.1279 24.4707 22.0229L28.848 21.3849C29.3083 21.2476 29.4052 20.6823 29.5102 20.1896C29.6233 19.6808 29.5991 19.5355 29.696 18.8248C29.7929 18.1383 29.6718 17.4761 28.1938 17.0723L19.5524 13.1876C19.0032 12.9453 18.4459 13.1069 18.2117 13.5268L11.2662 23.3716C10.8947 24.1147 11.0482 24.6638 11.4035 25.1484L20.5942 38.7809C20.9576 39.3705 21.0707 39.9439 21.0464 40.5012L19.4635 51.3555C10.2082 47.8908 3.61004 38.9667 3.61004 28.5C3.61004 15.029 14.529 4.11004 28 4.11004C41.471 4.11004 52.39 15.029 52.39 28.5C52.39 38.8375 45.9613 47.6728 36.8918 51.2182Z" fill="#3B3839"/>
</svg>
